<mxfile host="app.diagrams.net" modified="2022-07-08T14:06:42.133Z" agent="5.0 (Windows NT 10.0; Win64; x64) AppleWebKit/537.36 (KHTML, like Gecko) Chrome/103.0.0.0 Safari/537.36" etag="3UNUqhn8QJoXJ2qL2vL9" version="20.0.4" type="github">
  <diagram id="C5RBs43oDa-KdzZeNtuy" name="Page-1">
    <mxGraphModel dx="1185" dy="635" grid="1" gridSize="10" guides="1" tooltips="1" connect="1" arrows="1" fold="1" page="1" pageScale="1" pageWidth="827" pageHeight="1169" math="0" shadow="0">
      <root>
        <mxCell id="WIyWlLk6GJQsqaUBKTNV-0" />
        <mxCell id="WIyWlLk6GJQsqaUBKTNV-1" parent="WIyWlLk6GJQsqaUBKTNV-0" />
        <mxCell id="L0hy-_8Bg-5unGcYPAbD-5" value="输入" style="edgeStyle=orthogonalEdgeStyle;rounded=0;orthogonalLoop=1;jettySize=auto;html=1;entryX=-0.02;entryY=0.417;entryDx=0;entryDy=0;entryPerimeter=0;" edge="1" parent="WIyWlLk6GJQsqaUBKTNV-1" source="L0hy-_8Bg-5unGcYPAbD-3" target="L0hy-_8Bg-5unGcYPAbD-4">
          <mxGeometry relative="1" as="geometry" />
        </mxCell>
        <mxCell id="L0hy-_8Bg-5unGcYPAbD-3" value="脚本文件" style="verticalLabelPosition=bottom;html=1;verticalAlign=top;align=center;strokeColor=none;fillColor=#00BEF2;shape=mxgraph.azure.cloud_services_configuration_file;pointerEvents=1;" vertex="1" parent="WIyWlLk6GJQsqaUBKTNV-1">
          <mxGeometry x="140" y="120" width="50" height="50" as="geometry" />
        </mxCell>
        <mxCell id="L0hy-_8Bg-5unGcYPAbD-6" style="edgeStyle=orthogonalEdgeStyle;rounded=0;orthogonalLoop=1;jettySize=auto;html=1;" edge="1" parent="WIyWlLk6GJQsqaUBKTNV-1" source="L0hy-_8Bg-5unGcYPAbD-4" target="L0hy-_8Bg-5unGcYPAbD-7">
          <mxGeometry relative="1" as="geometry">
            <mxPoint x="375" y="220" as="targetPoint" />
          </mxGeometry>
        </mxCell>
        <mxCell id="L0hy-_8Bg-5unGcYPAbD-4" value="读取脚本文件获取文件内容" style="rounded=0;whiteSpace=wrap;html=1;" vertex="1" parent="WIyWlLk6GJQsqaUBKTNV-1">
          <mxGeometry x="300" y="120" width="140" height="60" as="geometry" />
        </mxCell>
        <mxCell id="L0hy-_8Bg-5unGcYPAbD-13" style="edgeStyle=orthogonalEdgeStyle;rounded=0;orthogonalLoop=1;jettySize=auto;html=1;entryX=0.5;entryY=0;entryDx=0;entryDy=0;" edge="1" parent="WIyWlLk6GJQsqaUBKTNV-1" source="L0hy-_8Bg-5unGcYPAbD-7" target="L0hy-_8Bg-5unGcYPAbD-12">
          <mxGeometry relative="1" as="geometry" />
        </mxCell>
        <mxCell id="L0hy-_8Bg-5unGcYPAbD-7" value="正则表达式匹配liunx命令集" style="rounded=0;whiteSpace=wrap;html=1;" vertex="1" parent="WIyWlLk6GJQsqaUBKTNV-1">
          <mxGeometry x="310" y="227.5" width="120" height="50" as="geometry" />
        </mxCell>
        <mxCell id="L0hy-_8Bg-5unGcYPAbD-15" style="edgeStyle=orthogonalEdgeStyle;rounded=0;orthogonalLoop=1;jettySize=auto;html=1;entryX=0.006;entryY=0.411;entryDx=0;entryDy=0;entryPerimeter=0;" edge="1" parent="WIyWlLk6GJQsqaUBKTNV-1" source="L0hy-_8Bg-5unGcYPAbD-10" target="L0hy-_8Bg-5unGcYPAbD-7">
          <mxGeometry relative="1" as="geometry" />
        </mxCell>
        <mxCell id="L0hy-_8Bg-5unGcYPAbD-10" value="常用命令集&lt;br&gt;{cd,echo,ls,cp……}" style="shape=document;whiteSpace=wrap;html=1;boundedLbl=1;" vertex="1" parent="WIyWlLk6GJQsqaUBKTNV-1">
          <mxGeometry x="110" y="215" width="130" height="75" as="geometry" />
        </mxCell>
        <mxCell id="L0hy-_8Bg-5unGcYPAbD-14" style="edgeStyle=orthogonalEdgeStyle;rounded=0;orthogonalLoop=1;jettySize=auto;html=1;exitX=1;exitY=0.5;exitDx=0;exitDy=0;" edge="1" parent="WIyWlLk6GJQsqaUBKTNV-1" source="L0hy-_8Bg-5unGcYPAbD-12">
          <mxGeometry relative="1" as="geometry">
            <mxPoint x="410.0344827586207" y="369.8620689655173" as="targetPoint" />
          </mxGeometry>
        </mxCell>
        <mxCell id="L0hy-_8Bg-5unGcYPAbD-16" value="不存在" style="edgeStyle=orthogonalEdgeStyle;rounded=0;orthogonalLoop=1;jettySize=auto;html=1;exitX=1;exitY=0.5;exitDx=0;exitDy=0;entryX=0;entryY=0.5;entryDx=0;entryDy=0;" edge="1" parent="WIyWlLk6GJQsqaUBKTNV-1" source="L0hy-_8Bg-5unGcYPAbD-12" target="L0hy-_8Bg-5unGcYPAbD-17">
          <mxGeometry relative="1" as="geometry">
            <mxPoint x="480" y="365" as="targetPoint" />
          </mxGeometry>
        </mxCell>
        <mxCell id="L0hy-_8Bg-5unGcYPAbD-19" value="存在" style="edgeStyle=orthogonalEdgeStyle;rounded=0;orthogonalLoop=1;jettySize=auto;html=1;exitX=0.5;exitY=1;exitDx=0;exitDy=0;" edge="1" parent="WIyWlLk6GJQsqaUBKTNV-1" source="L0hy-_8Bg-5unGcYPAbD-12">
          <mxGeometry relative="1" as="geometry">
            <mxPoint x="360" y="450" as="targetPoint" />
            <Array as="points">
              <mxPoint x="370" y="450" />
            </Array>
          </mxGeometry>
        </mxCell>
        <mxCell id="L0hy-_8Bg-5unGcYPAbD-25" style="edgeStyle=orthogonalEdgeStyle;rounded=0;orthogonalLoop=1;jettySize=auto;html=1;" edge="1" parent="WIyWlLk6GJQsqaUBKTNV-1" source="L0hy-_8Bg-5unGcYPAbD-12" target="L0hy-_8Bg-5unGcYPAbD-20">
          <mxGeometry relative="1" as="geometry" />
        </mxCell>
        <mxCell id="L0hy-_8Bg-5unGcYPAbD-12" value="是否存在于常用命令集" style="rhombus;whiteSpace=wrap;html=1;" vertex="1" parent="WIyWlLk6GJQsqaUBKTNV-1">
          <mxGeometry x="310" y="320" width="120" height="90" as="geometry" />
        </mxCell>
        <mxCell id="L0hy-_8Bg-5unGcYPAbD-17" value="抛出异常" style="rounded=1;whiteSpace=wrap;html=1;" vertex="1" parent="WIyWlLk6GJQsqaUBKTNV-1">
          <mxGeometry x="500" y="335" width="120" height="60" as="geometry" />
        </mxCell>
        <mxCell id="L0hy-_8Bg-5unGcYPAbD-22" style="edgeStyle=orthogonalEdgeStyle;rounded=0;orthogonalLoop=1;jettySize=auto;html=1;" edge="1" parent="WIyWlLk6GJQsqaUBKTNV-1" source="L0hy-_8Bg-5unGcYPAbD-20" target="L0hy-_8Bg-5unGcYPAbD-23">
          <mxGeometry relative="1" as="geometry">
            <mxPoint x="360" y="540" as="targetPoint" />
          </mxGeometry>
        </mxCell>
        <mxCell id="L0hy-_8Bg-5unGcYPAbD-20" value="获取分支条件" style="rounded=0;whiteSpace=wrap;html=1;" vertex="1" parent="WIyWlLk6GJQsqaUBKTNV-1">
          <mxGeometry x="310" y="450" width="120" height="60" as="geometry" />
        </mxCell>
        <mxCell id="L0hy-_8Bg-5unGcYPAbD-21" style="edgeStyle=orthogonalEdgeStyle;rounded=0;orthogonalLoop=1;jettySize=auto;html=1;exitX=0.5;exitY=1;exitDx=0;exitDy=0;" edge="1" parent="WIyWlLk6GJQsqaUBKTNV-1" source="L0hy-_8Bg-5unGcYPAbD-20" target="L0hy-_8Bg-5unGcYPAbD-20">
          <mxGeometry relative="1" as="geometry" />
        </mxCell>
        <mxCell id="L0hy-_8Bg-5unGcYPAbD-26" style="edgeStyle=orthogonalEdgeStyle;rounded=0;orthogonalLoop=1;jettySize=auto;html=1;entryX=0.5;entryY=0;entryDx=0;entryDy=0;" edge="1" parent="WIyWlLk6GJQsqaUBKTNV-1" source="L0hy-_8Bg-5unGcYPAbD-23" target="L0hy-_8Bg-5unGcYPAbD-24">
          <mxGeometry relative="1" as="geometry" />
        </mxCell>
        <mxCell id="L0hy-_8Bg-5unGcYPAbD-23" value="创建test-A()函数&lt;br&gt;和对应test-A-assert()断言函数&lt;br&gt;" style="rounded=0;whiteSpace=wrap;html=1;" vertex="1" parent="WIyWlLk6GJQsqaUBKTNV-1">
          <mxGeometry x="310" y="540" width="120" height="60" as="geometry" />
        </mxCell>
        <mxCell id="L0hy-_8Bg-5unGcYPAbD-24" value="得到测试脚本文件" style="rounded=1;whiteSpace=wrap;html=1;" vertex="1" parent="WIyWlLk6GJQsqaUBKTNV-1">
          <mxGeometry x="310" y="630" width="120" height="60" as="geometry" />
        </mxCell>
      </root>
    </mxGraphModel>
  </diagram>
</mxfile>
